<svg width="501" height="443" viewBox="0 0 501 443" fill="none" xmlns="http://www.w3.org/2000/svg">
<path fill-rule="evenodd" clip-rule="evenodd" d="M238.883 87.2811C262.404 97.9581 291.142 86.7156 315.28 96.0845C341.398 106.221 359.6 126.883 382.175 142.897C419.306 169.239 473.605 180.465 491.345 220.986C508.953 261.207 502.467 315.371 471.971 348.011C440.875 381.293 381.935 366.708 338.767 384.286C302.141 399.201 278.709 445.056 238.883 442.928C198.689 440.781 177.538 396.739 145.32 373.953C117.419 354.221 84.1967 342.669 61.6417 317.577C36.2754 289.357 16.0086 257.179 7.82143 220.986C-1.46667 179.926 -5.07181 136.081 11.798 97.2321C29.5506 56.3501 56.9968 2.11343 103.755 0.0644656C159.207 -2.36549 188.856 64.5715 238.883 87.2811Z" fill="#B2F5EA" fill-opacity="0.5"/>
</svg>
